<svg clip-rule="evenodd" fill-rule="evenodd" stroke-linejoin="round" stroke-miterlimit="2" version="1.1" viewBox="0 0 726 613" xml:space="preserve" xmlns="http://www.w3.org/2000/svg">
    <g transform="translate(-2540 -72.432)" fill-rule="nonzero">
        <path d="m3186.3 537.55-317.13 146.99 1.98-359.68 316-101.11-0.85 313.8z" fill="#b78c58"/>
        <path d="m2633.2 238.19 237.93 86.676 315.16-101.11-291.64-57.641-261.45 72.073z" fill="#99744b"/>
        <path d="m2894.6 166.11 112.41-56.039 258.82 56.039-78.75 57.641-292.48-57.641z" fill="#f2d08b"/>
        <path d="m2894.6 166.11v153.44l62.85-22.396 229.63-73.4-292.48-57.641z" fill="#d3b875"/>
        <path d="m2871.1 324.86-1.98 359.68-235.95-97.495v-348.86l237.93 86.676z" fill="#d3b875"/>
        <path d="m2871.1 324.86 72.88 129.29 321.87-127.92-78.75-102.48-316 101.11z" fill="#f2d08b"/>
        <path d="m2871.1 324.86-74.12 120.15-257-111.69 93.19-95.136 237.93 86.676z" fill="#f2d08b"/>
        <path d="m2633.2 238.19-70.12-114.4 268.49-51.355 63.08 93.681-261.45 72.073z" fill="#d3b875"/>
    </g>
</svg>
